<svg xmlns="http://www.w3.org/2000/svg" width="1200" height="800" viewBox="0 0 1200 800" fill="none">
  <!-- Background with soft gradient -->
  <rect width="1200" height="800" rx="8" fill="url(#generalGradient)" />
  
  <!-- Decorative elements -->
  <path d="M0 400 Q 300 300, 600 400 T 1200 400" stroke="#FFFFFF" stroke-width="8" stroke-opacity="0.2" fill="none" />
  <path d="M0 450 Q 300 350, 600 450 T 1200 450" stroke="#FFFFFF" stroke-width="6" stroke-opacity="0.15" fill="none" />
  <path d="M0 500 Q 300 400, 600 500 T 1200 500" stroke="#FFFFFF" stroke-width="4" stroke-opacity="0.1" fill="none" />
  
  <!-- Healscape logo/icon representation -->
  <g transform="translate(600, 400)">
    <!-- Stylized H with leaf elements -->
    <path d="M-80 -100 L-80 100 M-80 0 L80 0 M80 -100 L80 100" stroke="#FFFFFF" stroke-width="24" stroke-linecap="round" stroke-linejoin="round" />
    
    <!-- Leaf elements -->
    <path d="M-40 -60 Q 0 -100, 40 -60 Q 0 -20, -40 -60Z" fill="#FFFFFF" opacity="0.6" />
    <path d="M-40 60 Q 0 20, 40 60 Q 0 100, -40 60Z" fill="#FFFFFF" opacity="0.6" />
  </g>
  
  <!-- Small decorative circles -->
  <circle cx="300" cy="200" r="20" fill="#FFFFFF" opacity="0.2" />
  <circle cx="900" cy="600" r="30" fill="#FFFFFF" opacity="0.2" />
  <circle cx="1000" cy="200" r="15" fill="#FFFFFF" opacity="0.2" />
  <circle cx="200" cy="600" r="25" fill="#FFFFFF" opacity="0.2" />
  <circle cx="400" cy="300" r="18" fill="#FFFFFF" opacity="0.2" />
  <circle cx="800" cy="500" r="22" fill="#FFFFFF" opacity="0.2" />
  
  <!-- Gradients definition -->
  <defs>
    <linearGradient id="generalGradient" x1="0" y1="0" x2="1200" y2="800" gradientUnits="userSpaceOnUse">
      <stop offset="0%" stop-color="#3CAEA3" />
      <stop offset="100%" stop-color="#2E7D32" />
    </linearGradient>
  </defs>
</svg>