<svg width="256" height="256" viewBox="0 0 256 256" fill="none" xmlns="http://www.w3.org/2000/svg">
<rect width="256" height="256" rx="48" fill="#3CAEA3"/>
<path fill-rule="evenodd" clip-rule="evenodd" d="M128 64C134.627 64 140 69.3726 140 76C140 82.6274 134.627 88 128 88C121.373 88 116 82.6274 116 76C116 69.3726 121.373 64 128 64ZM128 100C134.627 100 140 105.373 140 112C140 118.627 134.627 124 128 124C121.373 124 116 118.627 116 112C116 105.373 121.373 100 128 100ZM128 136C134.627 136 140 141.373 140 148C140 154.627 134.627 160 128 160C121.373 160 116 154.627 116 148C116 141.373 121.373 136 128 136ZM128 172C134.627 172 140 177.373 140 184C140 190.627 134.627 196 128 196C121.373 196 116 190.627 116 184C116 177.373 121.373 172 128 172ZM128 208C134.627 208 140 213.373 140 220C140 226.627 134.627 232 128 232C121.373 232 116 226.627 116 220C116 213.373 121.373 208 128 208ZM128 244C134.627 244 140 249.373 140 256C140 262.627 134.627 268 128 268C121.373 268 116 262.627 116 256C116 249.373 121.373 244 128 244Z" fill="white"/>
</svg>