<svg xmlns="http://www.w3.org/2000/svg" width="1200" height="800" viewBox="0 0 1200 800" fill="none">
  <!-- Background with soft gradient -->
  <rect width="1200" height="800" rx="8" fill="url(#workoutGradient)" />
  
  <!-- Decorative wave patterns -->
  <path d="M0 600 Q 300 500, 600 600 T 1200 600" stroke="#FFFFFF" stroke-width="8" stroke-opacity="0.2" fill="none" />
  <path d="M0 650 Q 300 550, 600 650 T 1200 650" stroke="#FFFFFF" stroke-width="6" stroke-opacity="0.15" fill="none" />
  <path d="M0 700 Q 300 600, 600 700 T 1200 700" stroke="#FFFFFF" stroke-width="4" stroke-opacity="0.1" fill="none" />
  
  <!-- Workout icon -->
  <g transform="translate(600, 350)">
    <!-- Person silhouette -->
    <circle cx="0" cy="-80" r="50" fill="#FFFFFF" />
    <path d="M0 -30 L0 100 M-80 0 L80 0 M-60 150 L-20 100 M60 150 L20 100" stroke="#FFFFFF" stroke-width="20" stroke-linecap="round" stroke-linejoin="round" />
    
    <!-- Dumbbells -->
    <g transform="translate(-120, 0) rotate(-30)">
      <rect x="-50" y="-10" width="100" height="20" rx="10" fill="#FFFFFF" />
      <circle cx="-60" cy="0" r="25" fill="#FFFFFF" opacity="0.8" />
      <circle cx="60" cy="0" r="25" fill="#FFFFFF" opacity="0.8" />
    </g>
    
    <g transform="translate(120, 0) rotate(30)">
      <rect x="-50" y="-10" width="100" height="20" rx="10" fill="#FFFFFF" />
      <circle cx="-60" cy="0" r="25" fill="#FFFFFF" opacity="0.8" />
      <circle cx="60" cy="0" r="25" fill="#FFFFFF" opacity="0.8" />
    </g>
  </g>
  
  <!-- Small decorative circles -->
  <circle cx="300" cy="200" r="20" fill="#FFFFFF" opacity="0.2" />
  <circle cx="900" cy="600" r="30" fill="#FFFFFF" opacity="0.2" />
  <circle cx="1000" cy="200" r="15" fill="#FFFFFF" opacity="0.2" />
  <circle cx="200" cy="600" r="25" fill="#FFFFFF" opacity="0.2" />
  
  <!-- Gradients definition -->
  <defs>
    <linearGradient id="workoutGradient" x1="0" y1="0" x2="1200" y2="800" gradientUnits="userSpaceOnUse">
      <stop offset="0%" stop-color="#2E7D32" />
      <stop offset="100%" stop-color="#1B5E20" />
    </linearGradient>
  </defs>
</svg>